<?xml version="1.0" encoding="UTF-8" standalone="no"?>
<!DOCTYPE svg PUBLIC "-//W3C//DTD SVG 1.1//EN"
 "http://www.w3.org/Graphics/SVG/1.1/DTD/svg11.dtd">
<!-- Generated by graphviz version 2.26.3 (20100126.1600)
 -->
<!-- Title: G Pages: 1 -->
<svg width="494pt" height="152pt"
 viewBox="0.00 0.00 494.00 152.00" xmlns="http://www.w3.org/2000/svg" xmlns:xlink="http://www.w3.org/1999/xlink">
<g id="graph1" class="graph" transform="scale(1 1) rotate(0) translate(4 148)">
<title>G</title>
<polygon fill="white" stroke="white" points="-4,5 -4,-148 491,-148 491,5 -4,5"/>
<!-- build -->
<g id="node1" class="node"><title>build</title>
<a xlink:href="javascript:alert(&#39;\T&#39;);" xlink:title="build">
<ellipse fill="pink" stroke="pink" cx="318" cy="-72" rx="34.8574" ry="18.3848"/>
<text text-anchor="middle" x="318" y="-68.4" font-family="Times Roman,serif" font-size="14.00">build</text>
</a>
</g>
<!-- compile -->
<g id="node3" class="node"><title>compile</title>
<a xlink:href="javascript:alert(&#39;\T&#39;);" xlink:title="compile">
<ellipse fill="#e5e5e5" stroke="#e5e5e5" cx="438" cy="-72" rx="48.0833" ry="18.3848"/>
<text text-anchor="middle" x="438" y="-68.4" font-family="Times Roman,serif" font-size="14.00">compile</text>
</a>
</g>
<!-- build&#45;&gt;compile -->
<g id="edge2" class="edge"><title>build&#45;&gt;compile</title>
<path fill="none" stroke="#b3b3b3" d="M353.679,-72C361.911,-72 370.879,-72 379.793,-72"/>
<polygon fill="#b3b3b3" stroke="#b3b3b3" points="379.794,-75.5001 389.794,-72 379.794,-68.5001 379.794,-75.5001"/>
</g>
<!-- autobuild -->
<g id="node4" class="node"><title>autobuild</title>
<a xlink:href="javascript:alert(&#39;\T&#39;);" xlink:title="autobuild">
<ellipse fill="#e5e5e5" stroke="#e5e5e5" cx="123" cy="-126" rx="56.7776" ry="18.3848"/>
<text text-anchor="middle" x="123" y="-122.4" font-family="Times Roman,serif" font-size="14.00">autobuild</text>
</a>
</g>
<!-- autobuild&#45;&gt;build -->
<g id="edge4" class="edge"><title>autobuild&#45;&gt;build</title>
<path fill="none" stroke="#b3b3b3" d="M172.488,-116.816C195.094,-112.192 222.099,-106.065 246,-99 257.486,-95.6046 269.765,-91.2728 280.869,-87.0781"/>
<polygon fill="#b3b3b3" stroke="#b3b3b3" points="282.203,-90.315 290.277,-83.454 279.687,-83.7829 282.203,-90.315"/>
</g>
<!-- publish&#45;dbunit&#45;jar -->
<g id="node6" class="node"><title>publish&#45;dbunit&#45;jar</title>
<a xlink:href="javascript:alert(&#39;\T&#39;);" xlink:title="publish&#45;dbunit&#45;jar">
<ellipse fill="#e5e5e5" stroke="#e5e5e5" cx="123" cy="-72" rx="97.0803" ry="18.3848"/>
<text text-anchor="middle" x="123" y="-68.4" font-family="Times Roman,serif" font-size="14.00">publish&#45;dbunit&#45;jar</text>
</a>
</g>
<!-- publish&#45;dbunit&#45;jar&#45;&gt;build -->
<g id="edge6" class="edge"><title>publish&#45;dbunit&#45;jar&#45;&gt;build</title>
<path fill="none" stroke="#b3b3b3" d="M220.5,-72C238.448,-72 256.396,-72 271.911,-72"/>
<polygon fill="#b3b3b3" stroke="#b3b3b3" points="272.234,-75.5001 282.234,-72 272.234,-68.5001 272.234,-75.5001"/>
</g>
<!-- publish&#45;dbunit&#45;jar&#45;local -->
<g id="node8" class="node"><title>publish&#45;dbunit&#45;jar&#45;local</title>
<a xlink:href="javascript:alert(&#39;\T&#39;);" xlink:title="publish&#45;dbunit&#45;jar&#45;local">
<ellipse fill="#e5e5e5" stroke="#e5e5e5" cx="123" cy="-18" rx="121.83" ry="18.3848"/>
<text text-anchor="middle" x="123" y="-14.4" font-family="Times Roman,serif" font-size="14.00">publish&#45;dbunit&#45;jar&#45;local</text>
</a>
</g>
<!-- publish&#45;dbunit&#45;jar&#45;local&#45;&gt;build -->
<g id="edge8" class="edge"><title>publish&#45;dbunit&#45;jar&#45;local&#45;&gt;build</title>
<path fill="none" stroke="#b3b3b3" d="M196.933,-32.4346C213.208,-36.1096 230.276,-40.3517 246,-45 257.486,-48.3954 269.765,-52.7272 280.869,-56.9219"/>
<polygon fill="#b3b3b3" stroke="#b3b3b3" points="279.687,-60.2171 290.277,-60.546 282.203,-53.685 279.687,-60.2171"/>
</g>
</g>
</svg>
