<?xml version="1.0" encoding="UTF-8" standalone="no"?>
<!DOCTYPE svg PUBLIC "-//W3C//DTD SVG 1.1//EN"
 "http://www.w3.org/Graphics/SVG/1.1/DTD/svg11.dtd">
<!-- Generated by graphviz version 2.26.3 (20100126.1600)
 -->
<!-- Title: G Pages: 1 -->
<svg width="1374pt" height="618pt"
 viewBox="0.00 0.00 1374.00 617.98" xmlns="http://www.w3.org/2000/svg" xmlns:xlink="http://www.w3.org/1999/xlink">
<g id="graph1" class="graph" transform="scale(1 1) rotate(0) translate(4 613.984)">
<title>G</title>
<polygon fill="white" stroke="white" points="-4,5 -4,-613.984 1371,-613.984 1371,5 -4,5"/>
<!-- autobuild -->
<g id="node1" class="node"><title>autobuild</title>
<a xlink:href="javascript:alert(&#39;\T&#39;);" xlink:title="autobuild">
<ellipse fill="#e5e5e5" stroke="#e5e5e5" cx="60" cy="-440.984" rx="56.7776" ry="18.3848"/>
<text text-anchor="middle" x="60" y="-437.384" font-family="Times Roman,serif" font-size="14.00">autobuild</text>
</a>
</g>
<!-- clean -->
<g id="node3" class="node"><title>clean</title>
<a xlink:href="javascript:alert(&#39;\T&#39;);" xlink:title="clean">
<ellipse fill="#e5e5e5" stroke="#e5e5e5" cx="246" cy="-375.984" rx="36.977" ry="18.3848"/>
<text text-anchor="middle" x="246" y="-372.384" font-family="Times Roman,serif" font-size="14.00">clean</text>
</a>
</g>
<!-- autobuild&#45;&gt;clean -->
<g id="edge2" class="edge"><title>autobuild&#45;&gt;clean</title>
<path fill="none" stroke="#b3b3b3" d="M98.5393,-427.516C129.976,-416.53 174.232,-401.065 206.045,-389.947"/>
<polygon fill="#b3b3b3" stroke="#b3b3b3" points="207.205,-393.249 215.491,-386.646 204.896,-386.641 207.205,-393.249"/>
</g>
<!-- test -->
<g id="node5" class="node"><title>test</title>
<a xlink:href="javascript:alert(&#39;\T&#39;);" xlink:title="test">
<ellipse fill="#e5e5e5" stroke="#e5e5e5" cx="246" cy="-289.984" rx="31.1127" ry="18.3848"/>
<text text-anchor="middle" x="246" y="-286.384" font-family="Times Roman,serif" font-size="14.00">test</text>
</a>
</g>
<!-- autobuild&#45;&gt;test -->
<g id="edge4" class="edge"><title>autobuild&#45;&gt;test</title>
<path fill="none" stroke="#b3b3b3" d="M86.7486,-424.845C97.6496,-417.631 110.01,-408.591 120,-398.984 140.119,-379.638 137.688,-368.128 158,-348.984 174.984,-332.977 196.75,-318.344 214.386,-307.655"/>
<polygon fill="#b3b3b3" stroke="#b3b3b3" points="216.367,-310.549 223.184,-302.438 212.797,-304.528 216.367,-310.549"/>
</g>
<!-- &#45;publish&#45;jar -->
<g id="node7" class="node"><title>&#45;publish&#45;jar</title>
<a xlink:href="javascript:alert(&#39;\T&#39;);" xlink:title="&#45;publish&#45;jar">
<ellipse fill="#e5e5e5" stroke="#e5e5e5" cx="246" cy="-467.984" rx="65.9683" ry="18.3848"/>
<text text-anchor="middle" x="246" y="-464.384" font-family="Times Roman,serif" font-size="14.00">&#45;publish&#45;jar</text>
</a>
</g>
<!-- autobuild&#45;&gt;&#45;publish&#45;jar -->
<g id="edge6" class="edge"><title>autobuild&#45;&gt;&#45;publish&#45;jar</title>
<path fill="none" stroke="#b3b3b3" d="M112.306,-448.577C132.435,-451.499 155.732,-454.881 177.184,-457.995"/>
<polygon fill="#b3b3b3" stroke="#b3b3b3" points="176.818,-461.478 187.217,-459.451 177.824,-454.551 176.818,-461.478"/>
</g>
<!-- &#45;create&#45;tag -->
<g id="node9" class="node"><title>&#45;create&#45;tag</title>
<a xlink:href="javascript:alert(&#39;\T&#39;);" xlink:title="&#45;create&#45;tag">
<ellipse fill="#e5e5e5" stroke="#e5e5e5" cx="246" cy="-575.984" rx="65.7609" ry="18.3848"/>
<text text-anchor="middle" x="246" y="-572.384" font-family="Times Roman,serif" font-size="14.00">&#45;create&#45;tag</text>
</a>
</g>
<!-- autobuild&#45;&gt;&#45;create&#45;tag -->
<g id="edge8" class="edge"><title>autobuild&#45;&gt;&#45;create&#45;tag</title>
<path fill="none" stroke="#b3b3b3" d="M99.9705,-454.149C107.233,-457.815 114.302,-462.375 120,-467.984 148.339,-495.879 127.972,-522.916 158,-548.984 164.505,-554.632 172.173,-559.098 180.225,-562.63"/>
<polygon fill="#b3b3b3" stroke="#b3b3b3" points="179.219,-565.994 189.807,-566.362 181.759,-559.471 179.219,-565.994"/>
</g>
<!-- clean&#45;retrieved&#45;libs -->
<g id="node16" class="node"><title>clean&#45;retrieved&#45;libs</title>
<a xlink:href="javascript:alert(&#39;\T&#39;);" xlink:title="clean&#45;retrieved&#45;libs">
<ellipse fill="#e5e5e5" stroke="#e5e5e5" cx="478" cy="-395.984" rx="104.86" ry="18.3848"/>
<text text-anchor="middle" x="478" y="-392.384" font-family="Times Roman,serif" font-size="14.00">clean&#45;retrieved&#45;libs</text>
</a>
</g>
<!-- clean&#45;&gt;clean&#45;retrieved&#45;libs -->
<g id="edge16" class="edge"><title>clean&#45;&gt;clean&#45;retrieved&#45;libs</title>
<path fill="none" stroke="#b3b3b3" d="M283.018,-379.175C307.596,-381.294 341.184,-384.19 373.559,-386.981"/>
<polygon fill="#b3b3b3" stroke="#b3b3b3" points="373.292,-390.471 383.556,-387.842 373.893,-383.496 373.292,-390.471"/>
</g>
<!-- checkstyle -->
<g id="node40" class="node"><title>checkstyle</title>
<a xlink:href="javascript:alert(&#39;\T&#39;);" xlink:title="checkstyle">
<ellipse fill="#e5e5e5" stroke="#e5e5e5" cx="478" cy="-341.984" rx="62.9325" ry="18.3848"/>
<text text-anchor="middle" x="478" y="-338.384" font-family="Times Roman,serif" font-size="14.00">checkstyle</text>
</a>
</g>
<!-- test&#45;&gt;checkstyle -->
<g id="edge46" class="edge"><title>test&#45;&gt;checkstyle</title>
<path fill="none" stroke="#b3b3b3" d="M275.383,-296.57C311.165,-304.59 372.495,-318.336 418.329,-328.61"/>
<polygon fill="#b3b3b3" stroke="#b3b3b3" points="417.629,-332.04 428.152,-330.811 419.16,-325.209 417.629,-332.04"/>
</g>
<!-- &#45;run&#45;internal&#45;tests -->
<g id="node42" class="node"><title>&#45;run&#45;internal&#45;tests</title>
<a xlink:href="javascript:alert(&#39;\T&#39;);" xlink:title="&#45;run&#45;internal&#45;tests">
<ellipse fill="#e5e5e5" stroke="#e5e5e5" cx="478" cy="-125.984" rx="101.823" ry="18.3848"/>
<text text-anchor="middle" x="478" y="-122.384" font-family="Times Roman,serif" font-size="14.00">&#45;run&#45;internal&#45;tests</text>
</a>
</g>
<!-- test&#45;&gt;&#45;run&#45;internal&#45;tests -->
<g id="edge48" class="edge"><title>test&#45;&gt;&#45;run&#45;internal&#45;tests</title>
<path fill="none" stroke="#b3b3b3" d="M256.907,-272.713C276.337,-243.416 319.84,-184.13 372,-152.984 379.266,-148.646 387.214,-144.999 395.387,-141.936"/>
<polygon fill="#b3b3b3" stroke="#b3b3b3" points="396.744,-145.17 405.057,-138.601 394.462,-138.553 396.744,-145.17"/>
</g>
<!-- junit&#45;report&#45;all -->
<g id="node44" class="node"><title>junit&#45;report&#45;all</title>
<a xlink:href="javascript:alert(&#39;\T&#39;);" xlink:title="junit&#45;report&#45;all">
<ellipse fill="#e5e5e5" stroke="#e5e5e5" cx="478" cy="-179.984" rx="82.2301" ry="18.3848"/>
<text text-anchor="middle" x="478" y="-176.384" font-family="Times Roman,serif" font-size="14.00">junit&#45;report&#45;all</text>
</a>
</g>
<!-- test&#45;&gt;junit&#45;report&#45;all -->
<g id="edge50" class="edge"><title>test&#45;&gt;junit&#45;report&#45;all</title>
<path fill="none" stroke="#b3b3b3" d="M264.074,-275.242C287.579,-256.762 330.547,-225.295 372,-206.984 382.857,-202.188 394.731,-198.125 406.478,-194.722"/>
<polygon fill="#b3b3b3" stroke="#b3b3b3" points="407.58,-198.049 416.29,-192.018 405.72,-191.301 407.58,-198.049"/>
</g>
<!-- print&#45;timestamp -->
<g id="node46" class="node"><title>print&#45;timestamp</title>
<a xlink:href="javascript:alert(&#39;\T&#39;);" xlink:title="print&#45;timestamp">
<ellipse fill="#e5e5e5" stroke="#e5e5e5" cx="478" cy="-287.984" rx="90.0096" ry="18.3848"/>
<text text-anchor="middle" x="478" y="-284.384" font-family="Times Roman,serif" font-size="14.00">print&#45;timestamp</text>
</a>
</g>
<!-- test&#45;&gt;print&#45;timestamp -->
<g id="edge52" class="edge"><title>test&#45;&gt;print&#45;timestamp</title>
<path fill="none" stroke="#b3b3b3" d="M277.289,-289.715C303.122,-289.492 341.279,-289.163 377.407,-288.851"/>
<polygon fill="#b3b3b3" stroke="#b3b3b3" points="377.561,-292.35 387.531,-288.764 377.501,-285.351 377.561,-292.35"/>
</g>
<!-- build&#45;jar -->
<g id="node13" class="node"><title>build&#45;jar</title>
<a xlink:href="javascript:alert(&#39;\T&#39;);" xlink:title="build&#45;jar">
<ellipse fill="#e5e5e5" stroke="#e5e5e5" cx="478" cy="-449.984" rx="51.1176" ry="18.3848"/>
<text text-anchor="middle" x="478" y="-446.384" font-family="Times Roman,serif" font-size="14.00">build&#45;jar</text>
</a>
</g>
<!-- &#45;publish&#45;jar&#45;&gt;build&#45;jar -->
<g id="edge32" class="edge"><title>&#45;publish&#45;jar&#45;&gt;build&#45;jar</title>
<path fill="none" stroke="#b3b3b3" d="M310.009,-463.018C343.556,-460.415 384.419,-457.245 417.442,-454.683"/>
<polygon fill="#b3b3b3" stroke="#b3b3b3" points="417.723,-458.171 427.423,-453.908 417.182,-451.192 417.723,-458.171"/>
</g>
<!-- &#45;ivy&#45;buildnumber -->
<g id="node24" class="node"><title>&#45;ivy&#45;buildnumber</title>
<a xlink:href="javascript:alert(&#39;\T&#39;);" xlink:title="&#45;ivy&#45;buildnumber">
<ellipse fill="#e5e5e5" stroke="#e5e5e5" cx="478" cy="-572.984" rx="94.7523" ry="18.3848"/>
<text text-anchor="middle" x="478" y="-569.384" font-family="Times Roman,serif" font-size="14.00">&#45;ivy&#45;buildnumber</text>
</a>
</g>
<!-- &#45;publish&#45;jar&#45;&gt;&#45;ivy&#45;buildnumber -->
<g id="edge34" class="edge"><title>&#45;publish&#45;jar&#45;&gt;&#45;ivy&#45;buildnumber</title>
<path fill="none" stroke="#b3b3b3" d="M300.154,-478.726C311.974,-482.626 323.943,-487.894 334,-494.984 357.103,-511.272 348.511,-530.259 372,-545.984 379.223,-550.82 387.252,-554.79 395.568,-558.048"/>
<polygon fill="#b3b3b3" stroke="#b3b3b3" points="394.457,-561.368 405.051,-561.433 396.81,-554.775 394.457,-561.368"/>
</g>
<!-- &#45;create&#45;tag&#45;&gt;&#45;ivy&#45;buildnumber -->
<g id="edge24" class="edge"><title>&#45;create&#45;tag&#45;&gt;&#45;ivy&#45;buildnumber</title>
<path fill="none" stroke="#b3b3b3" d="M312.171,-575.129C331.162,-574.883 352.353,-574.609 373.069,-574.341"/>
<polygon fill="#b3b3b3" stroke="#b3b3b3" points="373.235,-577.839 383.189,-574.21 373.145,-570.84 373.235,-577.839"/>
</g>
<!-- clean&#45;test -->
<g id="node10" class="node"><title>clean&#45;test</title>
<a xlink:href="javascript:alert(&#39;\T&#39;);" xlink:title="clean&#45;test">
<ellipse fill="#e5e5e5" stroke="#e5e5e5" cx="60" cy="-371.984" rx="60.1041" ry="18.3848"/>
<text text-anchor="middle" x="60" y="-368.384" font-family="Times Roman,serif" font-size="14.00">clean&#45;test</text>
</a>
</g>
<!-- clean&#45;test&#45;&gt;clean -->
<g id="edge10" class="edge"><title>clean&#45;test&#45;&gt;clean</title>
<path fill="none" stroke="#b3b3b3" d="M119.875,-373.272C145.223,-373.817 174.347,-374.443 198.218,-374.957"/>
<polygon fill="#b3b3b3" stroke="#b3b3b3" points="198.368,-378.461 208.441,-375.177 198.518,-371.462 198.368,-378.461"/>
</g>
<!-- clean&#45;test&#45;&gt;test -->
<g id="edge14" class="edge"><title>clean&#45;test&#45;&gt;test</title>
<path fill="none" stroke="#b3b3b3" d="M78.8042,-354.838C93.8002,-342.049 115.887,-325.106 138,-314.984 159.258,-305.254 184.659,-299.128 205.485,-295.378"/>
<polygon fill="#b3b3b3" stroke="#b3b3b3" points="206.327,-298.786 215.607,-293.675 205.165,-291.883 206.327,-298.786"/>
</g>
<!-- clean&#45;test&#45;&gt;build&#45;jar -->
<g id="edge12" class="edge"><title>clean&#45;test&#45;&gt;build&#45;jar</title>
<path fill="none" stroke="#b3b3b3" d="M98.7075,-385.808C116.573,-391.778 138.175,-398.424 158,-402.984 247.603,-423.596 353.496,-437.068 418.184,-444.102"/>
<polygon fill="#b3b3b3" stroke="#b3b3b3" points="417.888,-447.59 428.204,-445.176 418.634,-440.63 417.888,-447.59"/>
</g>
<!-- compile -->
<g id="node20" class="node"><title>compile</title>
<a xlink:href="javascript:alert(&#39;\T&#39;);" xlink:title="compile">
<ellipse fill="pink" stroke="pink" cx="1020" cy="-92.9842" rx="48.0833" ry="18.3848"/>
<text text-anchor="middle" x="1020" y="-89.3842" font-family="Times Roman,serif" font-size="14.00">compile</text>
</a>
</g>
<!-- build&#45;jar&#45;&gt;compile -->
<g id="edge30" class="edge"><title>build&#45;jar&#45;&gt;compile</title>
<path fill="none" stroke="#b3b3b3" d="M528.877,-446.972C625.869,-440.11 831.715,-419.79 878,-368.984 903.286,-341.228 881.908,-235.787 896,-200.984 904.675,-179.559 916.06,-179.777 928,-159.984 938.07,-143.291 931.721,-133.257 946,-119.984 952.477,-113.963 960.404,-109.262 968.634,-105.597"/>
<polygon fill="#b3b3b3" stroke="#b3b3b3" points="969.989,-108.824 977.994,-101.884 967.408,-102.317 969.989,-108.824"/>
</g>
<!-- retrieve&#45;libs -->
<g id="node17" class="node"><title>retrieve&#45;libs</title>
<a xlink:href="javascript:alert(&#39;\T&#39;);" xlink:title="retrieve&#45;libs">
<ellipse fill="#e5e5e5" stroke="#e5e5e5" cx="1296" cy="-200.984" rx="70.0036" ry="18.3848"/>
<text text-anchor="middle" x="1296" y="-197.384" font-family="Times Roman,serif" font-size="14.00">retrieve&#45;libs</text>
</a>
</g>
<!-- init -->
<g id="node18" class="node"><title>init</title>
<a xlink:href="javascript:alert(&#39;\T&#39;);" xlink:title="init">
<ellipse fill="#e5e5e5" stroke="#e5e5e5" cx="1160" cy="-200.984" rx="27.0758" ry="18.3848"/>
<text text-anchor="middle" x="1160" y="-197.384" font-family="Times Roman,serif" font-size="14.00">init</text>
</a>
</g>
<!-- init&#45;&gt;retrieve&#45;libs -->
<g id="edge18" class="edge"><title>init&#45;&gt;retrieve&#45;libs</title>
<path fill="none" stroke="#b3b3b3" d="M1187.52,-200.984C1195.9,-200.984 1205.58,-200.984 1215.62,-200.984"/>
<polygon fill="#b3b3b3" stroke="#b3b3b3" points="1215.76,-204.484 1225.76,-200.984 1215.76,-197.484 1215.76,-204.484"/>
</g>
<!-- compile&#45;&gt;retrieve&#45;libs -->
<g id="edge22" class="edge"><title>compile&#45;&gt;retrieve&#45;libs</title>
<path fill="none" stroke="#b3b3b3" d="M1055.09,-105.532C1067.42,-110.009 1081.36,-115.144 1094,-119.984 1147.57,-140.494 1208.65,-165.167 1249.49,-181.851"/>
<polygon fill="#b3b3b3" stroke="#b3b3b3" points="1248.33,-185.156 1258.91,-185.703 1250.98,-178.677 1248.33,-185.156"/>
</g>
<!-- compile&#45;&gt;init -->
<g id="edge20" class="edge"><title>compile&#45;&gt;init</title>
<path fill="none" stroke="#b3b3b3" d="M1059.96,-103.182C1071.58,-107.271 1083.86,-112.769 1094,-119.984 1114.77,-134.762 1132.62,-157.719 1144.5,-175.425"/>
<polygon fill="#b3b3b3" stroke="#b3b3b3" points="1141.77,-177.651 1150.15,-184.134 1147.65,-173.84 1141.77,-177.651"/>
</g>
<!-- &#45;ivy&#45;buildnumber&#45;&gt;retrieve&#45;libs -->
<g id="edge28" class="edge"><title>&#45;ivy&#45;buildnumber&#45;&gt;retrieve&#45;libs</title>
<path fill="none" stroke="#b3b3b3" d="M542.949,-586.185C600.919,-596.811 688.26,-609.984 765,-609.984 765,-609.984 765,-609.984 1160,-609.984 1240.44,-609.984 1281.69,-321.534 1292.84,-229.112"/>
<polygon fill="#b3b3b3" stroke="#b3b3b3" points="1296.33,-229.428 1294.02,-219.086 1289.38,-228.607 1296.33,-229.428"/>
</g>
<!-- &#45;ivy&#45;buildnumber&#45;&gt;init -->
<g id="edge26" class="edge"><title>&#45;ivy&#45;buildnumber&#45;&gt;init</title>
<path fill="none" stroke="#b3b3b3" d="M548.426,-585.113C631.552,-596.006 771.884,-603.457 878,-552.984 1023.58,-483.741 1117.39,-298.217 1148.54,-228.221"/>
<polygon fill="#b3b3b3" stroke="#b3b3b3" points="1151.88,-229.323 1152.68,-218.759 1145.47,-226.517 1151.88,-229.323"/>
</g>
<!-- publish&#45;jar&#45;local -->
<g id="node30" class="node"><title>publish&#45;jar&#45;local</title>
<a xlink:href="javascript:alert(&#39;\T&#39;);" xlink:title="publish&#45;jar&#45;local">
<ellipse fill="#e5e5e5" stroke="#e5e5e5" cx="246" cy="-521.984" rx="87.1802" ry="18.3848"/>
<text text-anchor="middle" x="246" y="-518.384" font-family="Times Roman,serif" font-size="14.00">publish&#45;jar&#45;local</text>
</a>
</g>
<!-- publish&#45;jar&#45;local&#45;&gt;build&#45;jar -->
<g id="edge36" class="edge"><title>publish&#45;jar&#45;local&#45;&gt;build&#45;jar</title>
<path fill="none" stroke="#b3b3b3" d="M294.888,-507.034C307.625,-503.125 321.33,-498.908 334,-494.984 366.005,-485.074 401.98,-473.832 429.966,-465.063"/>
<polygon fill="#b3b3b3" stroke="#b3b3b3" points="431.016,-468.402 439.512,-462.071 428.923,-461.722 431.016,-468.402"/>
</g>
<!-- publish&#45;jar&#45;local&#45;&gt;&#45;ivy&#45;buildnumber -->
<g id="edge40" class="edge"><title>publish&#45;jar&#45;local&#45;&gt;&#45;ivy&#45;buildnumber</title>
<path fill="none" stroke="#b3b3b3" d="M306.047,-535.184C336.587,-541.898 373.931,-550.107 406.005,-557.158"/>
<polygon fill="#b3b3b3" stroke="#b3b3b3" points="405.258,-560.577 415.776,-559.306 406.761,-553.74 405.258,-560.577"/>
</g>
<!-- &#45;clear&#45;ivy&#45;cache -->
<g id="node33" class="node"><title>&#45;clear&#45;ivy&#45;cache</title>
<a xlink:href="javascript:alert(&#39;\T&#39;);" xlink:title="&#45;clear&#45;ivy&#45;cache">
<ellipse fill="#e5e5e5" stroke="#e5e5e5" cx="478" cy="-518.984" rx="87.1802" ry="18.3848"/>
<text text-anchor="middle" x="478" y="-515.384" font-family="Times Roman,serif" font-size="14.00">&#45;clear&#45;ivy&#45;cache</text>
</a>
</g>
<!-- publish&#45;jar&#45;local&#45;&gt;&#45;clear&#45;ivy&#45;cache -->
<g id="edge38" class="edge"><title>publish&#45;jar&#45;local&#45;&gt;&#45;clear&#45;ivy&#45;cache</title>
<path fill="none" stroke="#b3b3b3" d="M333.379,-520.854C348.657,-520.657 364.642,-520.45 380.18,-520.249"/>
<polygon fill="#b3b3b3" stroke="#b3b3b3" points="380.361,-523.747 390.315,-520.118 380.27,-516.748 380.361,-523.747"/>
</g>
<!-- &#45;clear&#45;ivy&#45;cache&#45;unix -->
<g id="node36" class="node"><title>&#45;clear&#45;ivy&#45;cache&#45;unix</title>
<a xlink:href="javascript:alert(&#39;\T&#39;);" xlink:title="&#45;clear&#45;ivy&#45;cache&#45;unix">
<ellipse fill="#e5e5e5" stroke="#e5e5e5" cx="765" cy="-525.984" rx="111.93" ry="18.3848"/>
<text text-anchor="middle" x="765" y="-522.384" font-family="Times Roman,serif" font-size="14.00">&#45;clear&#45;ivy&#45;cache&#45;unix</text>
</a>
</g>
<!-- &#45;clear&#45;ivy&#45;cache&#45;&gt;&#45;clear&#45;ivy&#45;cache&#45;unix -->
<g id="edge42" class="edge"><title>&#45;clear&#45;ivy&#45;cache&#45;&gt;&#45;clear&#45;ivy&#45;cache&#45;unix</title>
<path fill="none" stroke="#b3b3b3" d="M565.278,-521.113C589.992,-521.716 617.348,-522.383 643.683,-523.025"/>
<polygon fill="#b3b3b3" stroke="#b3b3b3" points="643.636,-526.525 653.718,-523.27 643.807,-519.527 643.636,-526.525"/>
</g>
<!-- &#45;clear&#45;ivy&#45;cache&#45;win -->
<g id="node38" class="node"><title>&#45;clear&#45;ivy&#45;cache&#45;win</title>
<a xlink:href="javascript:alert(&#39;\T&#39;);" xlink:title="&#45;clear&#45;ivy&#45;cache&#45;win">
<ellipse fill="#e5e5e5" stroke="#e5e5e5" cx="765" cy="-471.984" rx="109.101" ry="18.3848"/>
<text text-anchor="middle" x="765" y="-468.384" font-family="Times Roman,serif" font-size="14.00">&#45;clear&#45;ivy&#45;cache&#45;win</text>
</a>
</g>
<!-- &#45;clear&#45;ivy&#45;cache&#45;&gt;&#45;clear&#45;ivy&#45;cache&#45;win -->
<g id="edge44" class="edge"><title>&#45;clear&#45;ivy&#45;cache&#45;&gt;&#45;clear&#45;ivy&#45;cache&#45;win</title>
<path fill="none" stroke="#b3b3b3" d="M546.744,-507.727C585.893,-501.315 635.34,-493.218 677.267,-486.352"/>
<polygon fill="#b3b3b3" stroke="#b3b3b3" points="677.893,-489.796 687.196,-484.726 676.762,-482.888 677.893,-489.796"/>
</g>
<!-- checkstyle&#45;&gt;init -->
<g id="edge56" class="edge"><title>checkstyle&#45;&gt;init</title>
<path fill="none" stroke="#b3b3b3" d="M524.142,-354.34C599.489,-372.478 753.07,-400.884 878,-368.984 984.001,-341.918 1089.6,-260.972 1135.8,-222.175"/>
<polygon fill="#b3b3b3" stroke="#b3b3b3" points="1138.11,-224.805 1143.46,-215.663 1133.57,-219.47 1138.11,-224.805"/>
</g>
<!-- &#45;isCheckstyleNeeded -->
<g id="node49" class="node"><title>&#45;isCheckstyleNeeded</title>
<a xlink:href="javascript:alert(&#39;\T&#39;);" xlink:title="&#45;isCheckstyleNeeded">
<ellipse fill="#e5e5e5" stroke="#e5e5e5" cx="765" cy="-341.984" rx="111.93" ry="18.3848"/>
<text text-anchor="middle" x="765" y="-338.384" font-family="Times Roman,serif" font-size="14.00">&#45;isCheckstyleNeeded</text>
</a>
</g>
<!-- checkstyle&#45;&gt;&#45;isCheckstyleNeeded -->
<g id="edge58" class="edge"><title>checkstyle&#45;&gt;&#45;isCheckstyleNeeded</title>
<path fill="none" stroke="#b3b3b3" d="M541.339,-341.984C571.012,-341.984 607.418,-341.984 642.172,-341.984"/>
<polygon fill="#b3b3b3" stroke="#b3b3b3" points="642.408,-345.484 652.408,-341.984 642.408,-338.484 642.408,-345.484"/>
</g>
<!-- check&#45;eol -->
<g id="node53" class="node"><title>check&#45;eol</title>
<a xlink:href="javascript:alert(&#39;\T&#39;);" xlink:title="check&#45;eol">
<ellipse fill="#e5e5e5" stroke="#e5e5e5" cx="765" cy="-287.984" rx="56.7776" ry="18.3848"/>
<text text-anchor="middle" x="765" y="-284.384" font-family="Times Roman,serif" font-size="14.00">check&#45;eol</text>
</a>
</g>
<!-- checkstyle&#45;&gt;check&#45;eol -->
<g id="edge60" class="edge"><title>checkstyle&#45;&gt;check&#45;eol</title>
<path fill="none" stroke="#b3b3b3" d="M530.64,-332.08C580.098,-322.774 654.017,-308.866 705.572,-299.166"/>
<polygon fill="#b3b3b3" stroke="#b3b3b3" points="706.391,-302.573 715.571,-297.284 705.096,-295.694 706.391,-302.573"/>
<text text-anchor="middle" x="618" y="-321.884" font-family="Times Roman,serif" font-size="9.00" fill="#b3b3b3">antcall</text>
</g>
<!-- compile&#45;tests -->
<g id="node48" class="node"><title>compile&#45;tests</title>
<a xlink:href="javascript:alert(&#39;\T&#39;);" xlink:title="compile&#45;tests">
<ellipse fill="#e5e5e5" stroke="#e5e5e5" cx="765" cy="-195.984" rx="75.1594" ry="18.3848"/>
<text text-anchor="middle" x="765" y="-192.384" font-family="Times Roman,serif" font-size="14.00">compile&#45;tests</text>
</a>
</g>
<!-- &#45;run&#45;internal&#45;tests&#45;&gt;compile&#45;tests -->
<g id="edge54" class="edge"><title>&#45;run&#45;internal&#45;tests&#45;&gt;compile&#45;tests</title>
<path fill="none" stroke="#b3b3b3" d="M537.166,-140.726C570.816,-149.08 613.75,-159.688 652,-168.984 667.988,-172.87 685.259,-177.02 701.374,-180.873"/>
<polygon fill="#b3b3b3" stroke="#b3b3b3" points="700.697,-184.309 711.236,-183.228 702.323,-177.501 700.697,-184.309"/>
</g>
<!-- compile&#45;tests&#45;&gt;compile -->
<g id="edge66" class="edge"><title>compile&#45;tests&#45;&gt;compile</title>
<path fill="none" stroke="#b3b3b3" d="M827.153,-185.703C844.093,-181.687 862.137,-176.249 878,-168.984 911.868,-153.473 913.082,-137.421 946,-119.984 954.521,-115.471 963.961,-111.395 973.169,-107.859"/>
<polygon fill="#b3b3b3" stroke="#b3b3b3" points="974.457,-111.114 982.631,-104.373 972.038,-104.546 974.457,-111.114"/>
</g>
<!-- &#45;make&#45;config -->
<g id="node60" class="node"><title>&#45;make&#45;config</title>
<a xlink:href="javascript:alert(&#39;\T&#39;);" xlink:title="&#45;make&#45;config">
<ellipse fill="#e5e5e5" stroke="#e5e5e5" cx="1020" cy="-200.984" rx="73.0388" ry="18.3848"/>
<text text-anchor="middle" x="1020" y="-197.384" font-family="Times Roman,serif" font-size="14.00">&#45;make&#45;config</text>
</a>
</g>
<!-- compile&#45;tests&#45;&gt;&#45;make&#45;config -->
<g id="edge68" class="edge"><title>compile&#45;tests&#45;&gt;&#45;make&#45;config</title>
<path fill="none" stroke="#b3b3b3" d="M840.473,-197.464C870.557,-198.054 905.305,-198.735 936.17,-199.341"/>
<polygon fill="#b3b3b3" stroke="#b3b3b3" points="936.409,-202.846 946.476,-199.543 936.547,-195.847 936.409,-202.846"/>
<text text-anchor="middle" x="912" y="-203.884" font-family="Times Roman,serif" font-size="9.00" fill="#b3b3b3">antcall</text>
</g>
<!-- findbugs -->
<g id="node54" class="node"><title>findbugs</title>
<a xlink:href="javascript:alert(&#39;\T&#39;);" xlink:title="findbugs">
<ellipse fill="#e5e5e5" stroke="#e5e5e5" cx="765" cy="-141.984" rx="51.8276" ry="18.3848"/>
<text text-anchor="middle" x="765" y="-138.384" font-family="Times Roman,serif" font-size="14.00">findbugs</text>
</a>
</g>
<!-- findbugs&#45;&gt;compile -->
<g id="edge62" class="edge"><title>findbugs&#45;&gt;compile</title>
<path fill="none" stroke="#b3b3b3" d="M810.883,-133.167C854.742,-124.74 920.829,-112.041 966.933,-103.181"/>
<polygon fill="#b3b3b3" stroke="#b3b3b3" points="967.873,-106.565 977.033,-101.241 966.552,-99.6907 967.873,-106.565"/>
</g>
<!-- findbugs&#45;include&#45;xml -->
<g id="node56" class="node"><title>findbugs&#45;include&#45;xml</title>
<a xlink:href="javascript:alert(&#39;\T&#39;);" xlink:title="findbugs&#45;include&#45;xml">
<ellipse fill="#e5e5e5" stroke="#e5e5e5" cx="765" cy="-87.9842" rx="111.222" ry="18.3848"/>
<text text-anchor="middle" x="765" y="-84.3842" font-family="Times Roman,serif" font-size="14.00">findbugs&#45;include&#45;xml</text>
</a>
</g>
<!-- findbugs&#45;include&#45;xml&#45;&gt;compile -->
<g id="edge64" class="edge"><title>findbugs&#45;include&#45;xml&#45;&gt;compile</title>
<path fill="none" stroke="#b3b3b3" d="M875.734,-90.1555C905.386,-90.7369 936.268,-91.3424 961.816,-91.8434"/>
<polygon fill="#b3b3b3" stroke="#b3b3b3" points="961.988,-95.3473 972.055,-92.0441 962.125,-88.3487 961.988,-95.3473"/>
</g>
<!-- &#45;make&#45;config&#45;&gt;init -->
<g id="edge70" class="edge"><title>&#45;make&#45;config&#45;&gt;init</title>
<path fill="none" stroke="#b3b3b3" d="M1093.69,-200.984C1103.63,-200.984 1113.48,-200.984 1122.41,-200.984"/>
<polygon fill="#b3b3b3" stroke="#b3b3b3" points="1122.44,-204.484 1132.44,-200.984 1122.44,-197.484 1122.44,-204.484"/>
</g>
<!-- mutate -->
<g id="node62" class="node"><title>mutate</title>
<a xlink:href="javascript:alert(&#39;\T&#39;);" xlink:title="mutate">
<ellipse fill="#e5e5e5" stroke="#e5e5e5" cx="478" cy="-29.9842" rx="46.8775" ry="18.3848"/>
<text text-anchor="middle" x="478" y="-26.3842" font-family="Times Roman,serif" font-size="14.00">mutate</text>
</a>
</g>
<!-- mutate&#45;&gt;init -->
<g id="edge72" class="edge"><title>mutate&#45;&gt;init</title>
<path fill="none" stroke="#b3b3b3" d="M521.12,-22.1527C594.658,-9.99017 748.906,10.3295 878,-6.98424 976.634,-20.2127 1017.33,-2.53371 1094,-65.9842 1127.26,-93.511 1145.1,-141.863 1153.56,-172.613"/>
<polygon fill="#b3b3b3" stroke="#b3b3b3" points="1150.27,-173.889 1156.17,-182.693 1157.05,-172.135 1150.27,-173.889"/>
</g>
<!-- mutate&#45;&gt;compile&#45;tests -->
<g id="edge74" class="edge"><title>mutate&#45;&gt;compile&#45;tests</title>
<path fill="none" stroke="#b3b3b3" d="M504.833,-45.1757C526.971,-58.2329 558.735,-78.197 584,-98.9842 600.747,-112.763 633.15,-158.261 652,-168.984 663.526,-175.541 676.584,-180.511 689.628,-184.276"/>
<polygon fill="#b3b3b3" stroke="#b3b3b3" points="689.01,-187.734 699.574,-186.927 690.813,-180.97 689.01,-187.734"/>
</g>
<!-- mutateAll -->
<g id="node65" class="node"><title>mutateAll</title>
<a xlink:href="javascript:alert(&#39;\T&#39;);" xlink:title="mutateAll">
<ellipse fill="#e5e5e5" stroke="#e5e5e5" cx="478" cy="-233.984" rx="58.8978" ry="18.3848"/>
<text text-anchor="middle" x="478" y="-230.384" font-family="Times Roman,serif" font-size="14.00">mutateAll</text>
</a>
</g>
<!-- mutateAll&#45;&gt;init -->
<g id="edge76" class="edge"><title>mutateAll&#45;&gt;init</title>
<path fill="none" stroke="#b3b3b3" d="M533.947,-240.403C643.011,-251.391 891.138,-268.901 1094,-227.984 1105.8,-225.604 1118.16,-221.137 1128.95,-216.511"/>
<polygon fill="#b3b3b3" stroke="#b3b3b3" points="1130.67,-219.573 1138.35,-212.274 1127.8,-213.19 1130.67,-219.573"/>
</g>
<!-- mutateAll&#45;&gt;compile&#45;tests -->
<g id="edge78" class="edge"><title>mutateAll&#45;&gt;compile&#45;tests</title>
<path fill="none" stroke="#b3b3b3" d="M532.658,-226.747C576.935,-220.885 639.816,-212.559 688.999,-206.047"/>
<polygon fill="#b3b3b3" stroke="#b3b3b3" points="689.504,-209.511 698.958,-204.728 688.585,-202.571 689.504,-209.511"/>
</g>
<!-- javadoc -->
<g id="node68" class="node"><title>javadoc</title>
<a xlink:href="javascript:alert(&#39;\T&#39;);" xlink:title="javadoc">
<ellipse fill="#e5e5e5" stroke="#e5e5e5" cx="1020" cy="-146.984" rx="48.0833" ry="18.3848"/>
<text text-anchor="middle" x="1020" y="-143.384" font-family="Times Roman,serif" font-size="14.00">javadoc</text>
</a>
</g>
<!-- javadoc&#45;&gt;init -->
<g id="edge80" class="edge"><title>javadoc&#45;&gt;init</title>
<path fill="none" stroke="#b3b3b3" d="M1055.11,-159.482C1067.45,-163.955 1081.37,-169.1 1094,-173.984 1104.87,-178.19 1116.68,-182.955 1127.26,-187.299"/>
<polygon fill="#b3b3b3" stroke="#b3b3b3" points="1125.99,-190.562 1136.57,-191.142 1128.66,-184.091 1125.99,-190.562"/>
</g>
<!-- javadoc&#45;test -->
<g id="node70" class="node"><title>javadoc&#45;test</title>
<a xlink:href="javascript:alert(&#39;\T&#39;);" xlink:title="javadoc&#45;test">
<ellipse fill="#e5e5e5" stroke="#e5e5e5" cx="765" cy="-33.9842" rx="70.9184" ry="18.3848"/>
<text text-anchor="middle" x="765" y="-30.3842" font-family="Times Roman,serif" font-size="14.00">javadoc&#45;test</text>
</a>
</g>
<!-- javadoc&#45;test&#45;&gt;compile -->
<g id="edge82" class="edge"><title>javadoc&#45;test&#45;&gt;compile</title>
<path fill="none" stroke="#b3b3b3" d="M817.836,-46.2091C862.227,-56.48 925.262,-71.0646 969.1,-81.2074"/>
<polygon fill="#b3b3b3" stroke="#b3b3b3" points="968.445,-84.6483 978.977,-83.4926 970.023,-77.8284 968.445,-84.6483"/>
</g>
<!-- makepom -->
<g id="node72" class="node"><title>makepom</title>
<a xlink:href="javascript:alert(&#39;\T&#39;);" xlink:title="makepom">
<ellipse fill="#e5e5e5" stroke="#e5e5e5" cx="60" cy="-494.984" rx="58.1882" ry="18.3848"/>
<text text-anchor="middle" x="60" y="-491.384" font-family="Times Roman,serif" font-size="14.00">makepom</text>
</a>
</g>
</g>
</svg>
