<?xml version="1.0" encoding="UTF-8" standalone="no"?>
<!DOCTYPE svg PUBLIC "-//W3C//DTD SVG 1.1//EN"
 "http://www.w3.org/Graphics/SVG/1.1/DTD/svg11.dtd">
<!-- Generated by graphviz version 2.26.3 (20100126.1600)
 -->
<!-- Title: G Pages: 1 -->
<svg width="954pt" height="304pt"
 viewBox="0.00 0.00 954.00 303.72" xmlns="http://www.w3.org/2000/svg" xmlns:xlink="http://www.w3.org/1999/xlink">
<g id="graph1" class="graph" transform="scale(1 1) rotate(0) translate(4 299.719)">
<title>G</title>
<polygon fill="white" stroke="white" points="-4,5 -4,-299.719 951,-299.719 951,5 -4,5"/>
<!-- init -->
<g id="node1" class="node"><title>init</title>
<a xlink:href="javascript:alert(&#39;\T&#39;);" xlink:title="init">
<ellipse fill="#e5e5e5" stroke="#e5e5e5" cx="742" cy="-250.719" rx="27.0758" ry="18.3848"/>
<text text-anchor="middle" x="742" y="-247.119" font-family="Times Roman,serif" font-size="14.00">init</text>
</a>
</g>
<!-- retrieve&#45;libs -->
<g id="node3" class="node"><title>retrieve&#45;libs</title>
<a xlink:href="javascript:alert(&#39;\T&#39;);" xlink:title="retrieve&#45;libs">
<ellipse fill="#e5e5e5" stroke="#e5e5e5" cx="876" cy="-250.719" rx="70.0036" ry="18.3848"/>
<text text-anchor="middle" x="876" y="-247.119" font-family="Times Roman,serif" font-size="14.00">retrieve&#45;libs</text>
</a>
</g>
<!-- init&#45;&gt;retrieve&#45;libs -->
<g id="edge2" class="edge"><title>init&#45;&gt;retrieve&#45;libs</title>
<path fill="none" stroke="#b3b3b3" d="M769.765,-250.719C777.59,-250.719 786.518,-250.719 795.797,-250.719"/>
<polygon fill="#b3b3b3" stroke="#b3b3b3" points="795.969,-254.219 805.969,-250.719 795.969,-247.219 795.969,-254.219"/>
</g>
<!-- clean -->
<g id="node4" class="node"><title>clean</title>
<a xlink:href="javascript:alert(&#39;\T&#39;);" xlink:title="clean">
<ellipse fill="#e5e5e5" stroke="#e5e5e5" cx="210" cy="-69.719" rx="36.977" ry="18.3848"/>
<text text-anchor="middle" x="210" y="-66.119" font-family="Times Roman,serif" font-size="14.00">clean</text>
</a>
</g>
<!-- clean&#45;retrieved&#45;libs -->
<g id="node6" class="node"><title>clean&#45;retrieved&#45;libs</title>
<a xlink:href="javascript:alert(&#39;\T&#39;);" xlink:title="clean&#45;retrieved&#45;libs">
<ellipse fill="#e5e5e5" stroke="#e5e5e5" cx="410" cy="-69.719" rx="104.86" ry="18.3848"/>
<text text-anchor="middle" x="410" y="-66.119" font-family="Times Roman,serif" font-size="14.00">clean&#45;retrieved&#45;libs</text>
</a>
</g>
<!-- clean&#45;&gt;clean&#45;retrieved&#45;libs -->
<g id="edge4" class="edge"><title>clean&#45;&gt;clean&#45;retrieved&#45;libs</title>
<path fill="none" stroke="#b3b3b3" d="M247.618,-69.719C261.112,-69.719 277.129,-69.719 293.762,-69.719"/>
<polygon fill="#b3b3b3" stroke="#b3b3b3" points="294.18,-73.2191 304.18,-69.719 294.18,-66.2191 294.18,-73.2191"/>
</g>
<!-- build -->
<g id="node7" class="node"><title>build</title>
<a xlink:href="javascript:alert(&#39;\T&#39;);" xlink:title="build">
<ellipse fill="#e5e5e5" stroke="#e5e5e5" cx="615" cy="-223.719" rx="34.8574" ry="18.3848"/>
<text text-anchor="middle" x="615" y="-220.119" font-family="Times Roman,serif" font-size="14.00">build</text>
</a>
</g>
<!-- build&#45;&gt;init -->
<g id="edge6" class="edge"><title>build&#45;&gt;init</title>
<path fill="none" stroke="#b3b3b3" d="M648.036,-230.742C665.689,-234.495 687.459,-239.124 705.598,-242.98"/>
<polygon fill="#b3b3b3" stroke="#b3b3b3" points="705.016,-246.434 715.525,-245.09 706.472,-239.587 705.016,-246.434"/>
</g>
<!-- rebuild -->
<g id="node9" class="node"><title>rebuild</title>
<a xlink:href="javascript:alert(&#39;\T&#39;);" xlink:title="rebuild">
<ellipse fill="#e5e5e5" stroke="#e5e5e5" cx="58" cy="-57.719" rx="44.7575" ry="18.3848"/>
<text text-anchor="middle" x="58" y="-54.119" font-family="Times Roman,serif" font-size="14.00">rebuild</text>
</a>
</g>
<!-- rebuild&#45;&gt;clean -->
<g id="edge8" class="edge"><title>rebuild&#45;&gt;clean</title>
<path fill="none" stroke="#b3b3b3" d="M102.783,-61.2545C121.637,-62.743 143.594,-64.4764 162.71,-65.9856"/>
<polygon fill="#b3b3b3" stroke="#b3b3b3" points="162.463,-69.4768 172.707,-66.7748 163.014,-62.4985 162.463,-69.4768"/>
</g>
<!-- rebuild&#45;&gt;build -->
<g id="edge10" class="edge"><title>rebuild&#45;&gt;build</title>
<path fill="none" stroke="#b3b3b3" d="M91.1953,-45.3647C170.997,-17.9072 377.25,39.5389 516,-42.719 572.237,-76.059 598.609,-153.873 609.114,-195.791"/>
<polygon fill="#b3b3b3" stroke="#b3b3b3" points="605.734,-196.706 611.451,-205.626 612.544,-195.087 605.734,-196.706"/>
</g>
<!-- test -->
<g id="node12" class="node"><title>test</title>
<a xlink:href="javascript:alert(&#39;\T&#39;);" xlink:title="test">
<ellipse fill="#e5e5e5" stroke="#e5e5e5" cx="210" cy="-177.719" rx="31.1127" ry="18.3848"/>
<text text-anchor="middle" x="210" y="-174.119" font-family="Times Roman,serif" font-size="14.00">test</text>
</a>
</g>
<!-- &#45;test&#45;compile -->
<g id="node14" class="node"><title>&#45;test&#45;compile</title>
<a xlink:href="javascript:alert(&#39;\T&#39;);" xlink:title="&#45;test&#45;compile">
<ellipse fill="#e5e5e5" stroke="#e5e5e5" cx="410" cy="-231.719" rx="74.9533" ry="18.3848"/>
<text text-anchor="middle" x="410" y="-228.119" font-family="Times Roman,serif" font-size="14.00">&#45;test&#45;compile</text>
</a>
</g>
<!-- test&#45;&gt;&#45;test&#45;compile -->
<g id="edge12" class="edge"><title>test&#45;&gt;&#45;test&#45;compile</title>
<path fill="none" stroke="#b3b3b3" d="M237.907,-185.975C256.575,-191.438 281.712,-198.681 304,-204.719 318.148,-208.552 333.401,-212.528 347.806,-216.213"/>
<polygon fill="#b3b3b3" stroke="#b3b3b3" points="347.066,-219.635 357.62,-218.711 348.793,-212.852 347.066,-219.635"/>
</g>
<!-- &#45;test&#45;run -->
<g id="node16" class="node"><title>&#45;test&#45;run</title>
<a xlink:href="javascript:alert(&#39;\T&#39;);" xlink:title="&#45;test&#45;run">
<ellipse fill="#e5e5e5" stroke="#e5e5e5" cx="410" cy="-177.719" rx="55.1543" ry="18.3848"/>
<text text-anchor="middle" x="410" y="-174.119" font-family="Times Roman,serif" font-size="14.00">&#45;test&#45;run</text>
</a>
</g>
<!-- test&#45;&gt;&#45;test&#45;run -->
<g id="edge14" class="edge"><title>test&#45;&gt;&#45;test&#45;run</title>
<path fill="none" stroke="#b3b3b3" d="M241.25,-177.719C268.848,-177.719 309.986,-177.719 344.735,-177.719"/>
<polygon fill="#b3b3b3" stroke="#b3b3b3" points="344.82,-181.219 354.82,-177.719 344.82,-174.219 344.82,-181.219"/>
</g>
<!-- &#45;test&#45;report -->
<g id="node18" class="node"><title>&#45;test&#45;report</title>
<a xlink:href="javascript:alert(&#39;\T&#39;);" xlink:title="&#45;test&#45;report">
<ellipse fill="#e5e5e5" stroke="#e5e5e5" cx="410" cy="-123.719" rx="68.0887" ry="18.3848"/>
<text text-anchor="middle" x="410" y="-120.119" font-family="Times Roman,serif" font-size="14.00">&#45;test&#45;report</text>
</a>
</g>
<!-- test&#45;&gt;&#45;test&#45;report -->
<g id="edge16" class="edge"><title>test&#45;&gt;&#45;test&#45;report</title>
<path fill="none" stroke="#b3b3b3" d="M237.907,-169.463C256.575,-164 281.712,-156.757 304,-150.719 318.961,-146.666 335.157,-142.453 350.28,-138.593"/>
<polygon fill="#b3b3b3" stroke="#b3b3b3" points="351.209,-141.969 360.039,-136.114 349.485,-135.184 351.209,-141.969"/>
</g>
<!-- &#45;test&#45;compile&#45;&gt;build -->
<g id="edge18" class="edge"><title>&#45;test&#45;compile&#45;&gt;build</title>
<path fill="none" stroke="#b3b3b3" d="M484.3,-228.819C512.674,-227.712 544.174,-226.483 569.14,-225.509"/>
<polygon fill="#b3b3b3" stroke="#b3b3b3" points="569.555,-228.995 579.411,-225.108 569.282,-222.001 569.555,-228.995"/>
</g>
<!-- checkstyle -->
<g id="node20" class="node"><title>checkstyle</title>
<a xlink:href="javascript:alert(&#39;\T&#39;);" xlink:title="checkstyle">
<ellipse fill="#e5e5e5" stroke="#e5e5e5" cx="615" cy="-277.719" rx="62.9325" ry="18.3848"/>
<text text-anchor="middle" x="615" y="-274.119" font-family="Times Roman,serif" font-size="14.00">checkstyle</text>
</a>
</g>
<!-- checkstyle&#45;&gt;init -->
<g id="edge20" class="edge"><title>checkstyle&#45;&gt;init</title>
<path fill="none" stroke="#b3b3b3" d="M665.559,-266.97C678.961,-264.121 693.166,-261.101 705.648,-258.447"/>
<polygon fill="#b3b3b3" stroke="#b3b3b3" points="706.618,-261.82 715.671,-256.316 705.162,-254.973 706.618,-261.82"/>
</g>
<!-- check&#45;eol -->
<g id="node22" class="node"><title>check&#45;eol</title>
<a xlink:href="javascript:alert(&#39;\T&#39;);" xlink:title="check&#45;eol">
<ellipse fill="#e5e5e5" stroke="#e5e5e5" cx="210" cy="-123.719" rx="56.7776" ry="18.3848"/>
<text text-anchor="middle" x="210" y="-120.119" font-family="Times Roman,serif" font-size="14.00">check&#45;eol</text>
</a>
</g>
<!-- autobuild -->
<g id="node23" class="node"><title>autobuild</title>
<a xlink:href="javascript:alert(&#39;\T&#39;);" xlink:title="autobuild">
<ellipse fill="#e5e5e5" stroke="#e5e5e5" cx="58" cy="-134.719" rx="56.7776" ry="18.3848"/>
<text text-anchor="middle" x="58" y="-131.119" font-family="Times Roman,serif" font-size="14.00">autobuild</text>
</a>
</g>
<!-- autobuild&#45;&gt;clean -->
<g id="edge22" class="edge"><title>autobuild&#45;&gt;clean</title>
<path fill="none" stroke="#b3b3b3" d="M92.1118,-120.132C115.911,-109.954 147.681,-96.3686 172.243,-85.8651"/>
<polygon fill="#b3b3b3" stroke="#b3b3b3" points="173.789,-89.0105 181.608,-81.8604 171.037,-82.5742 173.789,-89.0105"/>
</g>
<!-- autobuild&#45;&gt;test -->
<g id="edge28" class="edge"><title>autobuild&#45;&gt;test</title>
<path fill="none" stroke="#b3b3b3" d="M100.745,-146.811C123.183,-153.159 150.438,-160.869 172.112,-167.001"/>
<polygon fill="#b3b3b3" stroke="#b3b3b3" points="171.374,-170.429 181.949,-169.784 173.28,-163.694 171.374,-170.429"/>
</g>
<!-- autobuild&#45;&gt;checkstyle -->
<g id="edge26" class="edge"><title>autobuild&#45;&gt;checkstyle</title>
<path fill="none" stroke="#b3b3b3" d="M94.3772,-148.666C101.884,-152.346 109.48,-156.714 116,-161.719 135.77,-176.897 131.536,-190.49 152,-204.719 271.055,-287.498 448.698,-290.407 545.683,-284.528"/>
<polygon fill="#b3b3b3" stroke="#b3b3b3" points="545.921,-288.02 555.671,-283.874 545.463,-281.035 545.921,-288.02"/>
</g>
<!-- autobuild&#45;&gt;check&#45;eol -->
<g id="edge24" class="edge"><title>autobuild&#45;&gt;check&#45;eol</title>
<path fill="none" stroke="#b3b3b3" d="M114.167,-130.654C123.77,-129.959 133.828,-129.231 143.666,-128.519"/>
<polygon fill="#b3b3b3" stroke="#b3b3b3" points="144.089,-131.998 153.81,-127.785 143.583,-125.016 144.089,-131.998"/>
</g>
<!-- help -->
<g id="node28" class="node"><title>help</title>
<a xlink:href="javascript:alert(&#39;\T&#39;);" xlink:title="help">
<ellipse fill="pink" stroke="pink" cx="58" cy="-188.719" rx="32.0265" ry="18.3848"/>
<text text-anchor="middle" x="58" y="-185.119" font-family="Times Roman,serif" font-size="14.00">help</text>
</a>
</g>
</g>
</svg>
